<?xml version="1.0" standalone="no"?>
<!DOCTYPE svg PUBLIC "-//W3C//DTD SVG 20010904//EN"
 "http://www.w3.org/TR/2001/REC-SVG-20010904/DTD/svg10.dtd">
<svg version="1.0" xmlns="http://www.w3.org/2000/svg"
 width="200.000000pt" height="200.000000pt" viewBox="0 0 200.000000 200.000000"
 preserveAspectRatio="xMidYMid meet">

<g transform="translate(0.000000,200.000000) scale(0.100000,-0.100000)"
fill="#000000" stroke="none">
<path d="M770 1590 c0 -29 -1 -30 -50 -30 -38 0 -50 -4 -50 -15 0 -11 12 -15
45 -15 l46 0 -31 -45 c-17 -24 -37 -48 -46 -53 -15 -8 -10 -42 6 -42 4 0 24
21 44 47 l36 46 0 -51 c0 -45 3 -52 20 -52 18 0 20 7 20 57 l0 57 29 -32 c26
-30 29 -31 42 -16 12 15 11 19 -11 33 -13 9 -33 24 -44 33 -20 17 -20 17 27
18 35 0 47 4 47 15 0 11 -12 15 -45 15 -43 0 -45 1 -45 30 0 23 -4 30 -20 30
-16 0 -20 -7 -20 -30z"/>
<path d="M1010 1590 c0 -29 -2 -30 -45 -30 -33 0 -45 -4 -45 -15 0 -10 11 -15
35 -15 19 0 35 -4 35 -9 0 -5 -21 -28 -46 -51 -40 -37 -44 -44 -32 -57 13 -12
20 -8 56 31 l42 46 0 -55 c0 -48 2 -55 20 -55 18 0 20 7 20 54 l0 55 44 -47
c37 -39 46 -44 59 -33 14 11 9 19 -41 66 l-57 54 53 1 c39 0 52 4 52 15 0 12
-13 15 -55 15 -54 0 -55 0 -55 30 0 23 -4 30 -20 30 -16 0 -20 -7 -20 -30z"/>
<path d="M1614 1590 l6 -30 -110 0 c-91 0 -110 -3 -110 -15 0 -13 33 -15 235
-15 202 0 235 2 235 15 0 12 -18 15 -103 15 l-103 0 -11 30 c-6 17 -19 30 -28
30 -14 0 -16 -6 -11 -30z"/>
<path d="M1480 1445 l0 -55 155 0 155 0 0 55 0 55 -155 0 -155 0 0 -55z m280
0 l0 -25 -120 0 -120 0 0 25 0 25 120 0 120 0 0 -25z"/>
<path d="M1247 1393 c-12 -11 -7 -50 7 -62 19 -16 56 2 56 27 0 32 -43 56 -63
35z"/>
<path d="M778 1307 c-6 -73 -25 -107 -75 -137 -28 -16 -33 -23 -24 -34 17 -20
44 -9 83 32 37 39 58 87 58 133 l0 29 90 0 89 0 3 -97 3 -98 66 -3 c73 -3 85
4 95 56 5 24 2 32 -15 41 -19 11 -21 9 -21 -23 0 -28 -4 -35 -26 -40 -14 -4
-34 -4 -45 -1 -17 6 -19 17 -19 106 l0 99 -129 0 -128 0 -5 -63z"/>
<path d="M1420 1240 c0 -100 3 -120 15 -120 12 0 15 18 15 100 l0 100 185 0
186 0 -3 -82 c-3 -82 -3 -83 -30 -86 -45 -5 -32 -23 15 -20 l42 3 5 108 c3 60
3 111 1 113 -2 2 -100 4 -218 4 l-213 0 0 -120z"/>
<path d="M852 1287 c-15 -17 95 -104 111 -88 13 13 -3 33 -59 72 -33 22 -44
26 -52 16z"/>
<path d="M1520 1220 c0 -56 3 -70 15 -70 8 0 15 7 15 15 0 12 18 15 100 15
l100 0 0 55 0 55 -115 0 -115 0 0 -70z m190 15 c0 -25 -1 -25 -80 -25 -79 0
-80 0 -80 25 0 25 1 25 80 25 79 0 80 0 80 -25z"/>
<path d="M1066 880 c-14 -4 -16 -9 -8 -14 31 -19 4 -26 -93 -26 l-105 0 0 -35
c0 -28 4 -35 20 -35 13 0 20 7 20 20 0 19 7 20 190 20 183 0 190 -1 190 -20 0
-13 7 -20 20 -20 16 0 20 7 20 35 l0 35 -103 0 c-97 0 -103 1 -117 24 -11 17
-20 22 -34 16z"/>
<path d="M370 825 l0 -55 -40 0 c-33 0 -40 -3 -40 -20 0 -16 7 -20 36 -20 l36
0 -7 -37 c-3 -21 -22 -69 -40 -108 -25 -52 -31 -73 -23 -83 15 -18 23 -7 52
68 l25 65 1 -127 c0 -121 1 -128 20 -128 18 0 20 8 22 138 l3 137 21 -38 c17
-33 22 -36 33 -24 10 13 6 24 -23 65 -20 27 -36 54 -36 61 0 6 16 11 35 11 28
0 35 4 35 20 0 16 -7 20 -35 20 l-35 0 0 55 c0 48 -2 55 -20 55 -18 0 -20 -7
-20 -55z"/>
<path d="M610 780 l0 -100 -65 0 c-58 0 -65 -2 -65 -20 0 -19 7 -20 125 -20
l125 0 0 -35 0 -35 -120 0 c-100 0 -120 -2 -120 -15 0 -12 20 -15 120 -15
l120 0 0 -40 0 -40 -130 0 c-123 0 -130 -1 -130 -20 0 -19 7 -20 130 -20 109
0 130 -2 130 -15 0 -8 9 -15 20 -15 19 0 20 7 20 145 l0 145 -65 0 -65 0 0
100 c0 82 -3 100 -15 100 -12 0 -15 -18 -15 -100z"/>
<path d="M1447 873 c-3 -5 -8 -28 -12 -53 -4 -25 -16 -69 -27 -99 -16 -43 -18
-55 -7 -62 19 -12 26 -4 44 51 16 47 18 50 52 50 33 0 35 -1 28 -27 -11 -45
-11 -48 5 -48 16 0 54 90 45 106 -4 5 -28 9 -55 9 l-48 0 8 34 c4 19 5 37 2
40 -8 8 -30 7 -35 -1z"/>
<path d="M1710 869 c0 -6 5 -19 10 -30 10 -18 7 -19 -60 -19 l-70 0 0 -45 c0
-33 4 -45 15 -45 13 0 15 -26 15 -175 0 -168 1 -175 20 -175 11 0 20 7 20 15
0 12 16 15 80 15 47 0 80 -4 80 -10 0 -5 9 -10 20 -10 18 0 20 7 20 80 l0 80
-100 0 -100 0 0 25 c0 25 1 25 85 25 l85 0 0 70 0 70 -100 0 -100 0 0 25 0 25
105 0 105 0 0 -30 c0 -23 4 -30 20 -30 17 0 20 7 20 45 l0 45 -67 1 c-38 0
-63 3 -56 5 18 8 -6 54 -29 54 -10 0 -18 -5 -18 -11z m88 -201 l3 -38 -70 0
-71 0 0 33 c0 19 3 37 7 41 4 4 34 6 68 4 l60 -3 3 -37z m22 -188 l0 -40 -80
0 -80 0 0 40 0 40 80 0 80 0 0 -40z"/>
<path d="M499 843 c-14 -3 -13 -12 9 -67 20 -50 29 -62 43 -59 19 5 18 10 -18
88 -12 27 -23 40 -34 38z"/>
<path d="M711 789 c-26 -66 -26 -72 -12 -77 8 -3 71 105 71 122 0 2 -8 6 -18
8 -14 4 -23 -7 -41 -53z"/>
<path d="M1027 775 c-16 -23 -24 -25 -97 -25 -64 0 -80 -3 -80 -15 0 -12 14
-15 67 -15 l67 0 -28 -29 c-31 -32 -31 -32 48 -46 21 -3 36 -8 34 -10 -2 -2
-45 -9 -95 -16 -74 -9 -90 -14 -86 -26 7 -18 89 -12 193 13 62 16 69 16 147
-5 75 -19 113 -20 113 -2 0 4 -33 15 -72 26 -40 10 -74 19 -76 20 -1 1 13 18
32 38 31 33 40 37 85 37 39 0 51 4 51 15 0 13 -22 15 -135 15 -123 0 -155 6
-125 25 13 8 3 25 -13 25 -7 0 -20 -12 -30 -25z m142 -71 c-34 -41 -83 -49
-162 -27 -18 5 -18 6 -1 24 14 16 31 19 97 19 71 0 78 -2 66 -16z"/>
<path d="M1460 568 c0 -95 -3 -125 -15 -138 -13 -14 -13 -19 -2 -28 11 -9 26
-2 70 31 31 23 56 50 57 60 0 22 -6 22 -41 -4 l-29 -20 0 110 c0 104 -1 111
-20 111 -19 0 -20 -7 -20 -122z"/>
<path d="M1070 570 c0 -19 -7 -20 -110 -20 -91 0 -110 -3 -110 -15 0 -12 17
-15 97 -15 l98 0 -35 -23 c-42 -28 -132 -67 -154 -67 -19 0 -21 -14 -3 -28 16
-14 113 24 174 68 l43 31 0 -60 c0 -54 2 -61 20 -61 18 0 20 7 20 61 l0 60 43
-31 c61 -44 158 -82 174 -68 21 17 15 26 -19 33 -39 9 -144 60 -153 75 -4 6
25 10 84 10 74 0 91 3 91 15 0 12 -19 15 -110 15 -103 0 -110 1 -110 20 0 13
-7 20 -20 20 -13 0 -20 -7 -20 -20z"/>
</g>
</svg>
